<svg width="96" height="96" viewBox="0 0 96 96" fill="none" xmlns="http://www.w3.org/2000/svg">
  <path d="M46.1 66.4C43.3 69.2 39.3 70.8 35.5 70.8C27.9 70.8 21.8 64.7 21.8 57.1L21.8 34.2C21.8 31 24.2 28.5 27.5 28.5L44.8 28.5C47 28.5 48.8 30.3 48.8 32.5C48.8 34.7 47 36.5 44.8 36.5L30.2 36.5L30.2 57.1C30.2 60.3 32.6 62.7 35.5 62.7C37.5 62.7 39.4 61.9 40.8 60.5L50.3 51C51.8 49.5 54.2 49.5 55.7 51L62.2 57.5C63.7 59 63.7 61.4 62.2 62.9L46.1 79.1C46.1 66.4 46.1 66.4 46.1 66.4ZM74.2 45.8C74.2 41.9 71.3 39 67.4 39L57.4 39C54.1 39 51.6 36.5 51.6 33.2C51.6 29.9 54.1 27.4 57.4 27.4L67.4 27.4C73.3 27.4 78.2 32.3 78.2 38.2L78.2 49.6C78.2 52.9 75.7 55.4 72.4 55.4C69.1 55.4 66.6 52.9 66.6 49.6L66.6 45.8C66.6 45.8 74.2 45.8 74.2 45.8Z" fill="#3498db"/>
</svg>
