<svg width="96" height="96" viewBox="0 0 96 96" fill="none" xmlns="http://www.w3.org/2000/svg">
<path d="M48 12C28.1 12 12 28.1 12 48C12 67.9 28.1 84 48 84C67.9 84 84 67.9 84 48C84 28.1 67.9 12 48 12ZM48 78C31.5 78 18 64.5 18 48C18 31.5 31.5 18 48 18C64.5 18 78 31.5 78 48C78 64.5 64.5 78 48 78Z" fill="#3498db"/>
<path d="M51.9 45.1L63.4 33.6C65.3 31.7 65.3 28.5 63.4 26.6C61.5 24.7 58.3 24.7 56.4 26.6L45.4 37.6C44.4 38.6 43.9 39.9 43.9 41.3V58C43.9 60.8 46.1 63 48.9 63C51.7 63 53.9 60.8 53.9 58V46.5C53.9 45.9 53.4 45.4 52.8 45.1L51.9 45.1Z" fill="#3498db"/>
</svg>
