<svg width="512" height="512" viewBox="0 0 512 512" fill="none" xmlns="http://www.w3.org/2000/svg">
    <!-- Background Color -->
    <rect width="512" height="512" fill="#2c3e50"/>

    <!-- Main Icon Group (Centered) -->
    <g transform="translate(64, 64) scale(1)">

        <!-- Shadow Group -->
        <g transform="translate(8, 8)" fill="#233140">
            <!-- Pump Body Shadow -->
            <path d="M128 64H224C234.92 64 240.897 64 245.5 66.07C254.3 70.02 260.98 76.7 264.93 85.5C267 90.103 267 96.08 267 106.001V308H128V64Z"/>
            <!-- Nozzle Shadow -->
            <path d="M267 192H316L348 224V256H292L267 228V192Z"/>
        </g>

        <!-- Pump Body -->
        <g>
            <!-- Main Body -->
            <path d="M128 64H224C234.92 64 240.897 64 245.5 66.07C254.3 70.02 260.98 76.7 264.93 85.5C267 90.103 267 96.08 267 106.001V308H128V64Z" fill="#3498db"/>
            <!-- Display Screen -->
            <rect x="144" y="128" width="108" height="64" rx="8" fill="#ecf0f1"/>
            <rect x="150" y="134" width="96" height="52" rx="4" fill="#2c3e50"/>
            <!-- Highlight on the curve -->
            <path d="M267 106C267 96.08 267 90.103 264.93 85.5C262.2 79.4 258.6 75.8 252.5 73.07C250.367 72.0673 247.587 71.302 243 70.5" stroke="#5dade2" stroke-width="8" stroke-linecap="round"/>
        </g>

        <!-- Hose -->
        <g>
            <path d="M267 172C295.667 172 302.5 198 290 224" stroke="#7f8c8d" stroke-width="16" stroke-linecap="round"/>
        </g>

        <!-- Nozzle -->
        <g>
            <path d="M267 192H316L348 224V256H292L267 228V192Z" fill="#95a5a6"/>
            <!-- Nozzle Trigger -->
            <rect x="296" y="240" width="40" height="12" rx="6" fill="#bdc3c7"/>
            <!-- Nozzle Tip Highlight -->
            <path d="M267 192L316 192L310 198H267V192Z" fill="#bdc3c7"/>
        </g>
    </g>
</svg>

