<svg fill="#FFFFFF" height="200px" width="200px" version="1.1" id="Layer_1" xmlns="http://www.w3.org/2000/svg" xmlns:xlink="http://www.w3.org/1999/xlink" viewBox="0 0 512.002 512.002" xml:space="preserve" style="--darkreader-inline-fill: var(--darkreader-background-ffffff, #181a1b); --darkreader-inline-stroke: var(--darkreader-text-ffffff, #e8e6e3);" stroke="#FFFFFF" data-darkreader-inline-fill="" data-darkreader-inline-stroke="">
    <g id="SVGRepo_bgCarrier" stroke-width="0"></g>
    <g id="SVGRepo_tracerCarrier" stroke-linecap="round" stroke-linejoin="round"></g>
    <g id="SVGRepo_iconCarrier"> 
            <path d="M436.866,436.871c48.312-48.311,74.921-112.546,74.921-180.871c0-141.039-114.744-255.785-255.783-255.786v49.507 c113.741,0.002,206.276,92.539,206.276,206.279c0,55.101-21.458,106.902-60.42,145.864l-7.571,7.571l-67.552-67.552l0.021,170.076 l170.096,0.041l-67.559-67.559L436.866,436.871z"></path> 
        <path d="M49.724,256.001c0-55.101,21.458-106.902,60.42-145.864l7.571-7.571l67.552,67.552L185.245,0.041L15.148,0l67.559,67.559 l-7.571,7.57C26.824,123.439,0.215,187.674,0.215,255.999c0,141.039,114.744,255.785,255.783,255.786v-49.507 C142.258,462.278,49.724,369.742,49.724,256.001z"></path> 
    </g>
</svg>
